<?xml version="1.0" standalone="no"?>
<!DOCTYPE svg PUBLIC "-//W3C//DTD SVG 20010904//EN"
 "http://www.w3.org/TR/2001/REC-SVG-20010904/DTD/svg10.dtd">
<svg version="1.0" xmlns="http://www.w3.org/2000/svg"
 width="260.000000pt" height="260.000000pt" viewBox="0 0 260.000000 260.000000"
 preserveAspectRatio="xMidYMid meet">
<metadata>
Created by potrace 1.14, written by Peter Selinger 2001-2017
</metadata>
<g transform="translate(0.000000,260.000000) scale(0.100000,-0.100000)"
fill="#000000" stroke="none">
<path d="M241 2116 l-34 -34 -1 -768 c-2 -734 -1 -771 17 -805 12 -22 31 -40
51 -47 24 -9 297 -12 1041 -12 l1008 0 33 35 c19 18 34 42 35 52 5 97 2 773
-3 773 -4 0 -10 10 -13 23 -13 50 -39 54 -346 56 -156 1 -289 2 -296 3 -7 1
-27 16 -45 35 -27 28 -32 41 -32 81 0 26 2 54 4 62 6 17 58 70 70 70 5 0 16 3
26 7 13 5 15 3 9 -7 -6 -10 -4 -11 6 -4 8 5 127 9 264 10 138 1 259 2 271 3
29 1 84 56 85 84 5 108 2 318 -4 342 -5 17 -21 39 -35 50 -27 20 -44 20 -1052
22 l-1025 2 -34 -33z m1200 -235 c31 -15 58 -58 63 -100 4 -37 -30 -101 -63
-117 -32 -16 -396 -18 -425 -2 -28 15 -55 47 -62 73 -15 62 23 138 76 152 50
13 381 8 411 -6z m7 -508 c55 -41 57 -54 56 -327 -1 -354 11 -340 -280 -341
-107 0 -194 4 -194 8 0 5 -4 6 -9 3 -9 -6 -43 28 -60 61 -7 14 -11 106 -11
273 0 269 3 290 52 322 34 22 42 23 241 22 161 -1 181 -3 205 -21z"/>
</g>
</svg>
